#N canvas 2079 0 718 848 10;
#X obj 161 148 loadbang;
#X floatatom 45 174 5 0 0 0 - - -, f 5;
#X floatatom 100 174 5 0 0 0 - - -, f 5;
#X text 14 174 rgt;
#X text 139 173 lft;
#X obj 360 218 osc~ 440;
#X obj 362 355 dac~ 1 2;
#X msg 161 267 connect localhost 3000;
#X obj 465 273 line;
#X obj 361 290 *~;
#X floatatom 465 307 6 0 0 0 - - -, f 6;
#X msg 465 207 0.9 4000;
#X msg 559 256 0 4000;
#X obj 161 327 netsend -u;
#X msg 730 75 \; pd dsp 0 \;;
#X obj 45 151 -;
#X msg 730 45 \; pd dsp 1 \;;
#X obj 465 188 metro 8000;
#X obj 559 205 delay 4000;
#X obj 465 165 tgl 15 0 empty empty empty 17 7 0 10 -262144 -1 -1 1
1;
#X msg 526 567 1 8.77215;
#X obj 620 440 sel 1;
#X obj 526 520 list prepend;
#X obj 715 438 sel 1;
#X obj 667 457 bng 15 250 50 0 empty empty empty 17 7 0 10 -262144
-1 -1;
#X obj 686 457 bng 15 250 50 0 empty empty empty 17 7 0 10 -262144
-1 -1;
#X obj 760 455 bng 15 250 50 0 empty empty empty 17 7 0 10 -262144
-1 -1;
#X msg 526 543 set \$1 \$2;
#X msg 620 470 1;
#X msg 715 468 2;
#X obj 580 345 t b f;
#X obj 780 455 bng 15 250 50 0 empty empty empty 17 7 0 10 -262144
-1 -1;
#X obj 810 437 sel 1;
#X obj 857 454 bng 15 250 50 0 empty empty empty 17 7 0 10 -262144
-1 -1;
#X obj 876 454 bng 15 250 50 0 empty empty empty 17 7 0 10 -262144
-1 -1;
#X msg 812 488 1;
#X msg 526 616 set \$1 \$2 \$3;
#X obj 526 374 expr if($f1 > $f2 \, $f1 - $f2 \, $f2 - $f1) \; if($f1
> $f2 \, 1 \, 0) \; if($f2 > $f1 \, 1 \, 0) \; if($f1 >10 || $f2 >
10 \, 1 \, 0);
#X msg 862 488 0;
#X obj 526 590 list prepend;
#X msg 526 641 1 1 7.77215;
#X obj 361 316 *~;
#X text 365 99 freq;
#X text 525 99 main vol;
#X obj 360 73 snapshot~;
#X obj 522 74 snapshot~;
#X obj 239 2 tgl 15 0 empty empty empty 17 7 0 10 -262144 -1 -1 1 1
;
#X obj 360 125 rescale 0 0.9 220 660;
#X obj 45 316 -;
#X obj 100 299 t b f;
#X obj 212 71 snapshot~;
#X obj 239 25 metro 10;
#X obj 248 143 print SUB;
#X obj 362 453 print rgt;
#X obj 362 434 print lft;
#X obj 45 126 env~;
#X obj 100 123 env~;
#X msg 578 230 set \$1 4000;
#X obj 45 54 adc~ 3 4 5 6 8;
#X obj 619 75 snapshot~;
#X msg 161 297 send \$1;
#X obj 210 105 rescale 0 0.9 -7 7;
#X obj 44 87 lop~ 2;
#X obj 99 87 lop~ 2;
#X floatatom 45 229 5 0 0 0 - - -, f 5;
#X floatatom 100 228 5 0 0 0 - - -, f 5;
#X obj 45 198 movage;
#X obj 100 198 movage;
#X obj 45 346 int;
#X obj 45 268 spigot;
#X obj 100 268 spigot;
#X obj 175 226 tgl 15 0 empty empty empty 17 7 0 10 -262144 -1 -1 1
1;
#X obj 175 191 delay 2000;
#X obj 161 391 tgl 15 0 empty empty empty 17 7 0 10 -262144 -1 -1 0
1;
#X obj 122 414 spigot;
#X obj 161 366 metro 100;
#X connect 0 0 7 0;
#X connect 0 0 19 0;
#X connect 0 0 46 0;
#X connect 0 0 72 0;
#X connect 0 0 75 0;
#X connect 1 0 66 0;
#X connect 2 0 67 0;
#X connect 5 0 9 0;
#X connect 7 0 13 0;
#X connect 8 0 9 1;
#X connect 8 0 10 0;
#X connect 9 0 41 0;
#X connect 11 0 8 0;
#X connect 12 0 8 0;
#X connect 15 0 1 0;
#X connect 17 0 11 0;
#X connect 17 0 18 0;
#X connect 18 0 12 0;
#X connect 19 0 17 0;
#X connect 20 0 39 0;
#X connect 21 0 28 0;
#X connect 21 0 24 0;
#X connect 21 1 25 0;
#X connect 22 0 27 0;
#X connect 23 0 29 0;
#X connect 23 0 26 0;
#X connect 23 1 31 0;
#X connect 24 0 20 0;
#X connect 25 0 20 0;
#X connect 27 0 20 0;
#X connect 28 0 22 1;
#X connect 29 0 22 1;
#X connect 30 0 37 0;
#X connect 30 1 37 1;
#X connect 32 0 33 0;
#X connect 32 1 34 0;
#X connect 33 0 35 0;
#X connect 33 0 40 0;
#X connect 34 0 38 0;
#X connect 34 0 40 0;
#X connect 35 0 39 1;
#X connect 36 0 40 0;
#X connect 37 0 22 0;
#X connect 37 1 21 0;
#X connect 37 2 23 0;
#X connect 37 3 32 0;
#X connect 38 0 39 1;
#X connect 39 0 36 0;
#X connect 41 0 6 0;
#X connect 44 0 47 0;
#X connect 45 0 41 1;
#X connect 46 0 51 0;
#X connect 47 0 5 0;
#X connect 48 0 68 0;
#X connect 49 0 48 0;
#X connect 49 1 48 1;
#X connect 50 0 61 0;
#X connect 51 0 44 0;
#X connect 51 0 45 0;
#X connect 51 0 50 0;
#X connect 51 0 59 0;
#X connect 55 0 15 0;
#X connect 56 0 2 0;
#X connect 57 0 12 0;
#X connect 58 0 62 0;
#X connect 58 1 63 0;
#X connect 58 2 50 0;
#X connect 58 3 44 0;
#X connect 58 4 45 0;
#X connect 58 4 59 0;
#X connect 59 0 57 0;
#X connect 60 0 13 0;
#X connect 61 0 15 1;
#X connect 62 0 55 0;
#X connect 63 0 56 0;
#X connect 64 0 69 0;
#X connect 65 0 70 0;
#X connect 66 0 64 0;
#X connect 67 0 65 0;
#X connect 68 0 74 0;
#X connect 69 0 48 0;
#X connect 70 0 49 0;
#X connect 71 0 70 1;
#X connect 71 0 69 1;
#X connect 72 0 71 0;
#X connect 73 0 74 1;
#X connect 74 0 60 0;
#X connect 75 0 73 0;
