#N canvas 339 179 308 398 10;
#X obj 196 204 +;
#X obj 196 225 +;
#X obj 196 247 +;
#X obj 196 269 / 5;
#X obj 52 38 t f f f f f f f f f f;
#X obj 196 117 +;
#X obj 196 138 +;
#X obj 196 160 +;
#X obj 196 180 +;
#X obj 196 73 +;
#X obj 196 94 +;
#X obj 52 12 inlet;
#X obj 196 292 outlet;
#X connect 0 0 1 0;
#X connect 1 0 2 0;
#X connect 2 0 3 0;
#X connect 3 0 12 0;
#X connect 4 0 2 1;
#X connect 4 1 1 1;
#X connect 4 2 0 1;
#X connect 4 3 8 1;
#X connect 4 4 7 1;
#X connect 4 5 6 1;
#X connect 4 6 5 1;
#X connect 4 7 10 1;
#X connect 4 8 9 1;
#X connect 4 9 9 0;
#X connect 5 0 6 0;
#X connect 6 0 7 0;
#X connect 7 0 8 0;
#X connect 8 0 0 0;
#X connect 9 0 10 0;
#X connect 10 0 5 0;
#X connect 11 0 4 0;
